<?xml version="1.0" encoding="utf-8"?>
<!-- Generator: Adobe Illustrator 24.2.1, SVG Export Plug-In . SVG Version: 6.00 Build 0)  -->
<svg version="1.1" id="Camada_1" xmlns="http://www.w3.org/2000/svg" xmlns:xlink="http://www.w3.org/1999/xlink" x="0px" y="0px"
	 viewBox="0 0 792 612" style="enable-background:new 0 0 792 612;" xml:space="preserve">
<path d="M184.18,284.76c-1.03-9.31,5.37-14.68,10.73-20.66c8-8.94,15.81-18.05,23.79-27c9.14-10.26,18.4-20.4,27.57-30.64
	c9.74-10.87,19.35-21.85,29.18-32.63c4.23-4.64,10.23-5.09,15.61-3.7c9.21,2.39,15.63,15.46,12.35,25.14
	c-2.63,7.76-8.8,12.58-13.75,18.41c-6.8,8.01-13.94,15.73-20.92,23.58c-9.63,10.84-19.23,21.7-28.88,32.51
	c-4.27,4.78-9.06,9.17-12.75,14.36c-1.41,1.98,2.14,4.11,3.73,5.89c9.64,10.83,19.39,21.57,29.1,32.33
	c6.58,7.29,13.2,14.56,19.74,21.89c6.77,7.59,13.69,15.07,20.14,22.93c5.41,6.6,6.78,17.69-0.15,25.74
	c-4.21,4.88-9.01,8.26-15.5,7.13c-5.86-1.03-9.92-5.18-13.71-9.7c-5.48-6.52-11.51-12.57-17.14-18.96
	c-7.18-8.14-14.15-16.46-21.3-24.61c-6.98-7.96-14.08-15.81-21.14-23.7c-6.71-7.5-13.33-15.09-20.2-22.44
	C186.43,296.08,183.41,291.22,184.18,284.76z"/>
<path d="M506.95,380.29c-0.71-7.5,3.26-12.72,8.09-17.82c7.14-7.54,13.83-15.5,20.73-23.26c6.12-6.88,12.29-13.71,18.41-20.59
	c7.27-8.17,14.51-16.37,21.77-24.55c2.45-2.75,5.52-5.14,7.26-8.28c1.54-2.78-2.21-4.14-3.58-6.1c-4.17-6-9.6-10.99-14.42-16.42
	c-4.32-4.86-8.68-9.8-13.24-14.51c-6.2-6.42-11.85-13.38-17.81-20.05c-7.92-8.86-16.07-17.53-23.81-26.55
	c-3.72-4.33-4.72-16.06-1.7-21.95c4.01-7.83,9.96-11.33,18.61-10.32c5.69,0.66,8.88,5.02,12.38,8.76
	c4.52,4.84,8.86,9.85,13.24,14.82c6.48,7.34,12.89,14.74,19.41,22.06c8.82,9.9,17.7,19.74,26.55,29.62
	c7.72,8.62,15.63,17.07,23.05,25.93c5.81,6.94,7.41,16.67,1.45,25.12c-5.9,8.37-13.24,15.41-19.93,23.05
	c-9.4,10.74-18.85,21.45-28.34,32.12c-6.82,7.67-13.76,15.23-20.6,22.88c-5.9,6.6-11.6,13.39-17.64,19.86
	c-4.03,4.32-9.06,6.74-15.25,6.08c-5.12-0.54-12.52-8.04-13.74-13.08C507.29,384.8,507.1,382.57,506.95,380.29z"/>
<path d="M474.58,185.34c0.23,8.45-2.66,13.36-5.59,18.39c-3.47,5.96-6.41,12.22-9.62,18.34c-4.54,8.67-9.06,17.37-13.7,25.99
	c-3.63,6.74-7.54,13.32-11.14,20.08c-4.05,7.59-7.79,15.34-11.84,22.93c-3.6,6.75-7.52,13.33-11.15,20.06
	c-4.3,7.96-8.38,16.03-12.68,23.99c-3.67,6.79-7.92,13.3-11.17,20.28c-3.28,7.03-7.02,13.77-10.8,20.51
	c-3.21,5.73-6.32,11.51-9.47,17.26c-2.2,4.02-11.54,8.39-15.79,6.9c-7.34-2.59-12.35-7.29-14.33-15.38
	c-1.86-7.59,1.34-13.35,4.72-19.43c3.49-6.27,6.56-12.77,9.92-19.11c2.67-5.04,5.55-9.97,8.24-15c3.05-5.71,5.92-11.51,9.01-17.2
	c2.96-5.44,6.2-10.74,9.11-16.2c2.49-4.68,4.59-9.57,7.06-14.26c4.78-9.11,9.64-18.18,14.56-27.21c5.6-10.3,11.4-20.49,16.92-30.82
	c4.99-9.33,9.36-19.02,14.69-28.15c4.99-8.56,7.78-18.54,15.21-25.52c4.08-3.84,11.33-5.4,17.57-2.17
	C471.91,173.53,474.06,180.04,474.58,185.34z"/>
</svg>
