<svg id="Camada_1" data-name="Camada 1" xmlns="http://www.w3.org/2000/svg" viewBox="0 0 236.45 210.42"><path d="M261.32,119.26H497.77V329.67H261.32Zm19.42,104.12h-.17c0,12.64-.07,25.28,0,37.92.23,32.28,19.38,52.72,51.66,55.23,30.4,2.36,57-19.34,57.93-48.82.89-28.14.63-56.35-.16-84.5-.62-22.19-11.23-38.67-32.47-46.83-36.65-14.08-78.63,8.46-76.88,50.16C281.18,198.8,280.74,211.1,280.74,223.38Zm171.21.2c0,26,0,52,0,77.94,0,3.86-1.06,9,3.18,10.73a28.7,28.7,0,0,0,21.12.13c5.28-2.05,3.66-8.1,3.67-12.6.1-27.42,0-54.85,0-82.27,0-23.81,0-47.63-.05-71.44,0-3.87,1.15-8.89-2.8-11-6.62-3.46-14.19-2.69-21.05-.74-5.19,1.47-4,7.13-4,11.28C451.9,171.62,452,197.6,452,223.58Z" transform="translate(-261.32 -119.26)"/><path d="M361.27,223.38c0,13.37.27,26.75-.07,40.11-.38,14.63-8.76,22.46-24.29,23.45-14.76.95-26.86-7.55-27.58-21.44a794.94,794.94,0,0,1,0-83.42c.72-13.8,12.81-22.24,27.7-21.39,15.27.86,23.7,8.93,24,23.66.3,13,.06,26,.06,39Z" transform="translate(-261.32 -119.26)"/></svg>