<?xml version="1.0" encoding="utf-8"?>
<!-- Generator: Adobe Illustrator 24.2.1, SVG Export Plug-In . SVG Version: 6.00 Build 0)  -->
<svg version="1.1" id="Camada_1" xmlns="http://www.w3.org/2000/svg" xmlns:xlink="http://www.w3.org/1999/xlink" x="0px" y="0px"
	 viewBox="0 0 792 612" style="enable-background:new 0 0 792 612;" xml:space="preserve">
<path d="M727.43,437.1c-12.23,0.34-24.47,0-36.71,0.15c-2.81,0.04-3.69-0.48-3.69-3.55c0.1-109.66,0.08-219.32,0.08-328.99
	c0-1.46,0.03-2.92-0.13-4.36c-0.66-5.87-3.86-9.78-9.33-11.88c-2.41-0.92-4.94-0.92-7.47-0.92c-182.79,0-365.59,0-548.38,0.01
	c-1.65,0-3.31,0.06-4.93,0.31c-5.11,0.76-8.64,3.65-10.82,8.28c-1.2,2.55-1.16,5.27-1.16,7.99c0,109.86-0.01,219.71,0.06,329.57
	c0,2.69-0.46,3.59-3.4,3.54c-13.3-0.18-26.61-0.12-39.92-0.06c-7.02,0.03-12.02,3.21-14.63,9.86c-0.17,0.42-0.12,0.99-0.73,1.12
	c0,7.38,0,14.77,0,22.15c1.06,0.55,0.8,1.69,1,2.55c3.16,13.33,9.36,25.03,18.93,34.82c10.33,10.57,22.55,16.4,37.79,16.34
	c57.6-0.23,115.21-0.08,172.81-0.03c77.61,0.07,155.23,0.19,232.84,0.28c59.74,0.06,119.48,0.11,179.22,0.15
	c7.99,0.01,15.62-1.68,22.66-5.49c17.94-9.72,28.17-25.21,33.05-44.64c0.29-1.15,0.06-2.51,1.16-3.39c0-7.38,0-14.77,0-22.15
	C742.77,439.95,736.41,436.85,727.43,437.1z M136.26,115.85c86.65,0.06,173.29,0.05,259.94,0.05c86.45,0,172.9,0.02,259.35-0.08
	c2.88,0,3.39,0.75,3.39,3.48c-0.08,104.72-0.08,209.44,0,314.15c0,2.9-0.52,3.81-3.66,3.8c-61.88-0.11-123.75-0.38-185.63,0.02
	c-44.38,0.29-88.77,0.47-133.15,0.16c-66.82-0.46-133.64-0.05-200.46-0.2c-2.46-0.01-2.97-0.62-2.96-3.01
	c0.07-105.11,0.07-210.21-0.02-315.32C133.06,116.23,133.84,115.85,136.26,115.85z M716.18,469.08
	c-2.26,8.06-6.15,15.05-12.51,20.56c-4.56,3.95-9.76,5.93-15.94,5.93c-97.53-0.07-195.07-0.05-292.6-0.05c0-0.1,0-0.2,0-0.3
	c-67.61,0-135.23,0.01-202.84-0.01c-29.73-0.01-59.45-0.16-89.18-0.06c-5.09,0.02-9.32-1.59-13.08-4.68
	c-7.1-5.85-11.66-13.36-14.2-22.18c-0.6-2.08,0.07-2.37,1.8-2.17c0.38,0.04,0.78,0.01,1.17,0.01c79.56,0,159.13,0.01,238.69-0.04
	c2.21,0,3.57,0.53,4.94,2.5c5.53,7.93,13.35,12.08,23,12.11c35.46,0.1,70.92,0.11,106.38,0c9.89-0.03,17.76-4.4,23.36-12.56
	c1.1-1.6,2.2-2.04,4.01-2.04c78.2,0.04,156.41,0.04,234.61-0.01C716.26,466.06,716.92,466.44,716.18,469.08z"/>
<path d="M330.6,378.33c-0.14-2.52,0.98-5.07,2.25-7.61c22.52-45.01,45.01-90.03,67.51-135.04c6.36-12.73,12.64-25.49,19.1-38.16
	c4.69-9.2,16.47-11.05,23.52-3.87c4.55,4.63,5.42,11.1,2.25,17.46c-9.38,18.79-18.79,37.57-28.18,56.35
	c-19.44,38.87-38.88,77.73-58.28,116.62c-2.19,4.4-5.28,7.61-10.16,8.81C339.32,395.14,330.57,388.26,330.6,378.33z"/>
<path d="M322.28,228.83c-0.1,4.47-2.02,8.01-5.12,11.09c-15.89,15.84-31.71,31.75-47.64,47.55c-1.68,1.67-1.81,2.48-0.04,4.23
	c15.88,15.71,31.63,31.56,47.47,47.31c3.66,3.64,5.63,7.78,5.11,13.03c-1.04,10.62-13.6,16.54-22.41,10.48
	c-1.35-0.93-2.57-2.07-3.73-3.23c-19.45-19.42-38.87-38.87-58.3-58.31c-7.17-7.18-7.22-15.57-0.05-22.75
	c19.69-19.73,39.39-39.44,59.14-59.12c8.45-8.42,21.72-5.34,24.89,5.73C321.97,226.13,322.06,227.5,322.28,228.83z"/>
<path d="M470.96,214.31c5.34-0.05,8.92,1.94,12.08,5.12c18.37,18.44,36.8,36.82,55.21,55.22c1.51,1.51,3.05,2.99,4.51,4.55
	c5.9,6.28,5.94,14.8-0.11,20.87c-20.01,20.1-40.07,40.15-60.15,60.17c-6.22,6.2-15.18,6.28-21.07,0.37
	c-5.77-5.79-5.73-14.7,0.39-20.87c15.73-15.86,31.57-31.62,47.36-47.41c2.76-2.76,2.77-2.76-0.06-5.59
	c-15.73-15.73-31.48-31.43-47.17-47.19c-8.4-8.43-5.14-21.63,6.06-24.75C469.21,214.46,470.48,214.38,470.96,214.31z"/>
</svg>
